<svg id="Layer_2" data-name="Layer 2" xmlns="http://www.w3.org/2000/svg" viewBox="0 0 901.53 307.92"><title>Soundtify</title><path d="M547.62,268.57c0-12.1-10.57-21.89-23.5-21.86l-1.92,0v-4C522,178.08,465.83,125.85,396.73,126s-125,52.76-124.81,117.39v4H270c-12.95,0-23.41,9.87-23.38,22l.19,69.21c0,12.1,10.56,21.9,23.5,21.84l13.37,0A108.56,108.56,0,0,0,306,398.26q31.44,34.19,90.86,34.19t91.21-33.93q15-16,22.9-38.72l13.46,0c12.95,0,23.41-9.88,23.38-22ZM262.28,334.49a2.91,2.91,0,0,1-1.92-.74,2.43,2.43,0,0,1-.81-1.81l-.14-51.53a2.61,2.61,0,0,1,2.71-2.55,2.76,2.76,0,0,1,1.92.72,2.48,2.48,0,0,1,.8,1.81l.14,51.53A2.64,2.64,0,0,1,262.28,334.49Zm199.94-22c-.05.95-.12,1.89-.19,2.82q-2.5,31.89-16,49.73-16.56,22-49.18,22-59,0-64.51-71.68c-.07-.93-.12-1.87-.18-2.82h-28L304,257.7h28.22c0-.95.1-1.88.19-2.82q2.52-31.89,16-49.74,16.56-22,49.18-21.93,59,0,64.51,71.67c.05.94.12,1.87.18,2.82H490.2l.15,54.77Zm70.13,21.24a2.85,2.85,0,0,1-1.94-.72,2.57,2.57,0,0,1-.79-1.81l-.14-51.53a2.64,2.64,0,0,1,2.71-2.57,2.91,2.91,0,0,1,1.92.74,2.58,2.58,0,0,1,.81,1.81l.14,51.53A2.62,2.62,0,0,1,532.35,333.71Z" transform="translate(-34.74 -126.04)" style="fill:#f7f7f7"/><path d="M229,345.61Q229,386,200,409.21t-80.84,23.24q-47.7,0-84.4-17.94V355.8q30.17,13.45,51.07,19t38.23,5.5q20.79,0,31.9-7.95t11.11-23.65a26.1,26.1,0,0,0-4.89-15.59q-4.89-6.84-14.37-13.15t-38.64-20.19q-27.32-12.84-41-24.66a92.64,92.64,0,0,1-21.82-27.52q-8.14-15.7-8.15-36.7,0-39.56,26.81-62.18T139.12,126a175,175,0,0,1,44.34,5.51A303.54,303.54,0,0,1,227.6,147l-20.39,49.13q-23.85-9.78-39.45-13.66a127,127,0,0,0-30.68-3.87q-17.94,0-27.52,8.36T100,208.81a27,27,0,0,0,3.87,14.58q3.87,6.23,12.34,12t40.06,20.89q41.79,20,57.28,40.06T229,345.61Z" transform="translate(-34.74 -126.04)" style="fill:#f7f7f7"/><path d="M936.27,434H861.71L790.1,317.49,718.5,434H648.57l102.15-158.8L655.1,126h72l66.34,110.78L858.55,126H928.9l-96.67,152.7Z" transform="translate(-34.74 -126.04)" style="fill:#f7f7f7"/><path d="M454.17,268.31v54.75h0c-.05,1-.12,1.91-.19,2.84q-2.51,31.89-16,49.73a53,53,0,0,1-10.43,10.5q-27.27-36.57-27.27-98.91,0-52.94,19.7-87,30.18,15,34,65.25C454.05,266.43,454.12,267.35,454.17,268.31Z" transform="translate(-34.74 -126.04)" style="fill:#f7f7f7"/><path d="M681.59,279.15q0,73.92-34.67,113.61t-99.37,39.69q-38.1,0-65.8-13.76a100.56,100.56,0,0,0,11.49-11.05,112.12,112.12,0,0,0,21-35.49q14.09,7.37,33.33,7.39,71.44,0,71.45-100.39,0-100.59-71.07-100.59-20,0-34.49,8A124.37,124.37,0,0,0,475.55,143q29.67-17,72.38-17,64.91,0,99.29,39.5T681.59,279.15Z" transform="translate(-34.74 -126.04)" style="fill:#f7f7f7"/></svg>